<?xml version="1.0" standalone="no"?>
<!DOCTYPE svg PUBLIC "-//W3C//DTD SVG 20010904//EN"
 "http://www.w3.org/TR/2001/REC-SVG-20010904/DTD/svg10.dtd">
<svg version="1.0" xmlns="http://www.w3.org/2000/svg"
 width="600.000000pt" height="400.000000pt" viewBox="0 0 600.000000 400.000000"
 preserveAspectRatio="xMidYMid meet">
<g transform="translate(0.000000,400.000000) scale(0.100000,-0.100000)"
fill="#000000" stroke="none">
<path d="M1390 3098 c-24 -13 -25 -20 -33 -128 -13 -186 -3 -1360 12 -1387 21
-40 37 -35 206 61 179 102 676 353 734 371 14 4 59 24 100 45 95 47 242 110
363 154 220 81 202 62 195 218 -8 197 -62 316 -206 458 -98 97 -184 148 -301
179 -104 27 -150 30 -625 36 -339 5 -425 4 -445 -7z m1040 -42 c36 -9 106 -37
155 -61 144 -70 264 -203 328 -366 31 -77 58 -280 41 -306 -14 -22 -19 -24
-164 -78 -135 -50 -254 -100 -396 -165 -49 -23 -129 -60 -179 -83 -97 -44
-452 -223 -550 -278 -33 -18 -102 -57 -154 -86 -51 -29 -102 -53 -112 -53 -18
0 -19 24 -19 751 l0 750 493 -4 c423 -3 501 -6 557 -21z"/>
<path d="M1553 3053 c87 -2 227 -2 310 0 84 1 13 3 -158 3 -170 0 -239 -2
-152 -3z"/>
<path d="M2098 3053 c12 -2 30 -2 40 0 9 3 -1 5 -23 4 -22 0 -30 -2 -17 -4z"/>
<path d="M1394 2700 c0 -113 2 -159 3 -102 2 56 2 148 0 205 -1 56 -3 10 -3
-103z"/>
<path d="M1888 2604 c-5 -4 -8 -110 -8 -236 l0 -228 183 0 c253 0 311 20 364
123 48 93 25 225 -49 280 -79 59 -89 61 -293 65 -104 2 -193 0 -197 -4z m319
-25 c75 -3 86 -6 134 -39 67 -45 89 -86 89 -168 0 -117 -62 -184 -187 -202
-38 -5 -127 -10 -200 -10 l-132 0 -3 112 c-2 62 -2 157 0 210 l3 97 47 3 c46
3 87 2 249 -3z"/>
<path d="M2911 2554 c0 -11 3 -14 6 -6 3 7 2 16 -1 19 -3 4 -6 -2 -5 -13z"/>
<path d="M2341 2154 c-24 -13 -38 -24 -31 -24 13 0 80 38 80 46 0 5 1 6 -49
-22z"/>
<path d="M1860 2138 c0 -9 5 -20 11 -23 17 -11 18 -2 3 19 -12 17 -14 17 -14
4z"/>
<path d="M3132 3094 c-22 -19 -22 -23 -28 -329 -7 -331 -2 -388 36 -400 12 -4
98 20 217 59 109 36 212 68 228 72 17 4 36 11 43 17 6 5 12 7 12 4 0 -4 19 1
43 9 66 24 425 121 513 139 43 9 95 20 114 25 19 4 71 16 115 25 95 20 125 37
125 70 0 56 -250 205 -435 258 -168 49 -234 55 -640 63 -304 6 -321 6 -343
-12z m835 -37 c169 -31 334 -99 483 -200 81 -54 91 -64 84 -82 -4 -11 -132
-43 -359 -90 -171 -36 -444 -115 -794 -230 -123 -40 -230 -71 -238 -68 -10 4
-13 70 -13 350 l0 345 378 -5 c274 -4 399 -9 459 -20z"/>
<path d="M3268 3053 c72 -2 192 -2 265 0 72 1 13 3 -133 3 -146 0 -205 -2
-132 -3z"/>
<path d="M3838 3043 c6 -2 18 -2 25 0 6 3 1 5 -13 5 -14 0 -19 -2 -12 -5z"/>
<path d="M4410 2856 c0 -2 24 -20 53 -40 47 -34 49 -34 17 -6 -35 32 -70 54
-70 46z"/>
<path d="M5740 2923 c-64 -8 -534 -73 -590 -83 -30 -5 -73 -12 -95 -15 -401
-57 -1135 -236 -1605 -392 -74 -24 -148 -48 -165 -53 -123 -35 -634 -231 -815
-313 -263 -118 -690 -328 -844 -416 -59 -34 -109 -61 -111 -61 -5 0 -238 -136
-345 -202 -209 -128 -375 -241 -718 -486 -188 -135 -210 -157 -190 -195 8 -16
40 -17 483 -17 l475 1 65 44 c36 25 67 45 70 45 3 0 5 -13 5 -29 0 -65 -21
-63 549 -58 486 4 521 5 598 25 216 56 388 194 478 383 49 105 65 177 65 294
0 122 -24 218 -81 324 -22 40 -38 75 -37 76 10 7 160 85 164 85 2 0 4 -183 4
-407 0 -527 8 -750 28 -770 13 -12 66 -13 376 -9 397 6 496 17 666 74 335 114
605 377 735 717 57 150 68 231 62 450 -4 169 -7 200 -31 279 -31 105 -76 204
-135 300 -23 37 -41 69 -39 71 7 5 227 67 283 80 33 7 105 25 160 39 55 15
111 29 124 32 14 3 28 7 31 9 4 2 20 7 37 9 16 3 65 13 109 21 43 9 93 18 109
20 58 8 220 37 245 45 31 8 49 52 30 74 -12 16 -63 19 -150 9z m133 -43 c-12
-11 -79 -27 -208 -49 -104 -18 -235 -43 -290 -56 -290 -70 -399 -98 -485 -124
-52 -16 -110 -32 -127 -36 -43 -9 -50 -22 -25 -48 29 -32 108 -173 137 -245
55 -136 69 -221 69 -427 1 -203 -8 -266 -58 -398 -100 -266 -312 -505 -563
-634 -209 -108 -352 -132 -830 -140 l-363 -6 0 591 c0 324 -3 597 -6 606 -3 9
-2 16 4 16 6 0 13 -6 15 -12 3 -8 6 -7 6 4 2 28 -17 30 -45 5 -26 -25 -170
-101 -211 -112 -13 -4 -23 -14 -22 -23 0 -11 2 -13 6 -4 7 19 48 -28 82 -96
52 -102 74 -208 69 -325 -6 -120 -29 -197 -91 -306 -78 -137 -233 -256 -395
-302 -107 -31 -259 -39 -724 -38 l-438 1 0 48 c0 27 -5 50 -11 52 -6 2 -26
-10 -45 -27 -18 -17 -51 -41 -73 -52 -38 -20 -53 -21 -483 -23 -243 -1 -454
-2 -468 -3 -63 -5 -23 31 280 247 450 322 850 565 1321 803 196 99 299 149
524 253 282 131 780 314 1250 459 276 85 772 206 1105 271 359 69 1042 164
1093 152 18 -5 18 -5 0 -22z"/>
<path d="M5238 2803 c7 -3 16 -2 19 1 4 3 -2 6 -13 5 -11 0 -14 -3 -6 -6z"/>
<path d="M5073 2783 c9 -2 25 -2 35 0 9 3 1 5 -18 5 -19 0 -27 -2 -17 -5z"/>
<path d="M5018 2773 c6 -2 18 -2 25 0 6 3 1 5 -13 5 -14 0 -19 -2 -12 -5z"/>
<path d="M4700 2595 c0 -8 2 -15 4 -15 2 0 6 7 10 15 3 8 1 15 -4 15 -6 0 -10
-7 -10 -15z"/>
<path d="M4030 2345 c-102 -42 -236 -97 -297 -122 l-113 -46 0 -467 c0 -257
-3 -482 -6 -499 -4 -21 -3 -31 5 -31 7 0 9 5 6 10 -4 6 22 10 72 10 93 0 235
28 321 63 165 66 281 170 355 318 132 262 91 567 -105 782 l-53 58 -185 -76z
m234 -16 c108 -121 156 -253 156 -434 0 -197 -52 -330 -180 -457 -118 -116
-274 -185 -468 -207 -46 -5 -92 -7 -102 -4 -24 6 -22 -52 -21 639 l1 291 173
73 c94 39 186 78 202 85 66 29 161 63 177 64 9 1 37 -22 62 -50z"/>
<path d="M2484 1571 c3 -5 -2 -11 -12 -14 -9 -4 -33 -16 -53 -29 -21 -13 -72
-44 -115 -71 -101 -61 -95 -57 -252 -161 -74 -49 -142 -90 -151 -91 -36 -2
-54 -28 -27 -38 10 -4 13 -1 10 8 -4 11 33 13 206 14 120 0 229 5 253 12 153
40 219 164 171 318 -11 34 -23 61 -27 61 -5 0 -6 -4 -3 -9z m15 -126 c6 -52 4
-75 -10 -104 -20 -44 -75 -93 -127 -111 -44 -15 -372 -27 -372 -13 0 5 8 14
18 20 61 42 157 104 217 141 39 24 77 47 85 52 110 70 165 99 173 91 5 -5 13
-39 16 -76z"/>
<path d="M2479 1253 c-13 -16 -12 -17 4 -4 16 13 21 21 13 21 -2 0 -10 -8 -17
-17z"/>
<path d="M2424 1214 c-18 -14 -18 -15 4 -4 12 6 22 13 22 15 0 8 -5 6 -26 -11z"/>
<path d="M2318 1173 c7 -3 16 -2 19 1 4 3 -2 6 -13 5 -11 0 -14 -3 -6 -6z"/>
<path d="M1365 850 c-3 -5 1 -10 9 -10 8 0 17 -10 19 -22 3 -17 5 -14 6 10 1
32 -20 45 -34 22z"/>
</g>
</svg>
