<?xml version="1.0" standalone="no"?>
<!DOCTYPE svg PUBLIC "-//W3C//DTD SVG 20010904//EN"
 "http://www.w3.org/TR/2001/REC-SVG-20010904/DTD/svg10.dtd">
<svg version="1.0" xmlns="http://www.w3.org/2000/svg"
 width="500.000000pt" height="500.000000pt" viewBox="0 0 500.000000 500.000000"
 preserveAspectRatio="xMidYMid meet">
<g transform="translate(0.000000,500.000000) scale(0.100000,-0.100000)"
fill="#000000" stroke="none">
<path d="M520 4809 c-146 -25 -274 -137 -316 -276 -17 -53 -23 -459 -9 -523
30 -136 129 -244 265 -290 59 -20 80 -21 304 -18 l241 3 65 31 c83 39 155 111
194 194 l31 65 3 239 c3 222 2 244 -18 306 -38 118 -127 209 -247 252 -66 24
-409 36 -513 17z m480 -175 c56 -26 115 -90 129 -141 6 -21 11 -129 11 -243 0
-195 -1 -208 -24 -255 -55 -117 -103 -135 -366 -135 -234 0 -260 5 -323 60
-74 66 -82 98 -82 341 l0 205 30 59 c58 114 123 135 400 131 157 -2 186 -4
225 -22z"/>
<path d="M698 4490 c-190 -36 -257 -282 -112 -410 156 -136 394 -30 394 175 0
152 -134 263 -282 235z"/>
<path d="M1811 4794 c-28 -23 -31 -31 -31 -85 l0 -59 46 0 c84 0 113 29 114
113 l0 57 -49 0 c-39 0 -56 -6 -80 -26z"/>
<path d="M2229 4809 c-107 -17 -129 -67 -129 -296 l0 -178 160 3 160 3 0 -81
0 -80 -162 0 c-225 0 -294 -27 -312 -124 -6 -30 -12 -37 -44 -45 -91 -25 -122
-79 -122 -213 l0 -93 -50 -18 c-55 -20 -96 -64 -106 -115 l-6 -32 104 0 c170
0 211 40 216 209 l4 107 42 12 c52 14 102 66 112 117 l6 35 79 0 79 0 0 -78 0
-79 -39 -11 c-93 -28 -121 -78 -121 -217 l0 -95 95 0 c138 0 204 38 221 125
l6 35 58 0 c76 0 100 26 100 108 l0 54 -61 -4 c-79 -6 -99 -27 -99 -104 l0
-54 -80 0 -80 0 0 80 c0 77 1 80 24 80 29 0 82 35 110 73 18 24 22 46 24 138
4 100 5 109 23 109 53 0 122 64 133 124 l7 36 159 0 160 0 0 -79 0 -79 -103
-4 c-116 -4 -156 -20 -194 -78 -47 -69 -37 -80 77 -80 136 0 199 37 216 125 5
28 11 35 29 35 28 0 82 36 109 73 19 26 21 44 24 212 l4 183 55 4 c76 7 103
36 103 114 l0 54 -44 0 c-88 0 -119 -28 -120 -109 -1 -28 -6 -46 -16 -51 -76
-35 -97 -50 -117 -79 -13 -19 -23 -46 -23 -60 l0 -26 -240 -1 -240 0 0 82 0
81 39 7 c57 9 121 83 121 141 0 17 -254 20 -351 4z"/>
<path d="M2778 4804 c-30 -16 -39 -39 -41 -106 l-2 -43 59 0 c78 1 106 30 106
111 l0 54 -47 0 c-27 -1 -60 -7 -75 -16z"/>
<path d="M4030 4809 c-151 -26 -280 -142 -319 -284 -18 -66 -15 -490 3 -550
35 -115 137 -217 256 -255 62 -20 84 -21 306 -18 l239 3 62 29 c77 35 163 122
201 203 27 57 27 61 30 296 4 265 -2 299 -60 397 -42 70 -136 142 -215 165
-68 21 -412 30 -503 14z m478 -173 c52 -22 114 -91 130 -144 8 -25 12 -116 12
-243 0 -193 -1 -207 -24 -254 -55 -117 -103 -135 -366 -135 -231 0 -265 6
-321 57 -80 72 -84 89 -84 338 l0 220 31 55 c34 60 97 108 162 121 75 16 413
4 460 -15z"/>
<path d="M4209 4491 c-115 -23 -195 -122 -193 -241 4 -247 346 -320 450 -95
82 176 -68 372 -257 336z"/>
<path d="M1550 4637 c-78 -41 -90 -78 -90 -286 l0 -176 183 3 c265 6 297 30
297 227 l0 98 -160 -7 -160 -7 0 86 c0 97 -2 98 -70 62z"/>
<path d="M3482 4647 c-39 -12 -89 -66 -98 -105 -10 -48 -13 -52 -37 -52 -52 0
-121 -70 -129 -130 -3 -25 -3 -25 77 -25 l80 0 1 -280 c2 -344 1 -352 -37
-360 -55 -12 -119 -84 -119 -134 0 -18 -9 -19 -109 -23 -92 -2 -114 -6 -138
-24 -37 -27 -73 -81 -73 -109 0 -18 -7 -24 -35 -29 -59 -11 -125 -82 -125
-135 0 -19 -8 -20 -189 -23 -174 -3 -192 -5 -218 -24 -38 -28 -73 -81 -73
-110 l0 -24 175 0 c227 0 265 16 297 121 l11 39 79 0 78 0 0 -81 0 -81 33 6
c88 17 122 77 122 214 l0 102 83 0 83 0 -3 -160 -3 -160 84 0 83 0 -7 -80 c-8
-92 0 -98 74 -60 67 34 85 76 83 197 l-2 103 85 0 85 0 -6 -80 c-8 -92 1 -98
75 -60 66 33 81 70 81 194 l0 106 58 0 c77 0 103 25 110 105 l4 55 -60 0 c-79
0 -112 -33 -112 -111 l0 -49 -81 0 -81 0 7 80 c7 79 7 80 -16 80 -60 0 -139
-79 -139 -139 0 -20 -5 -21 -86 -21 l-87 0 6 83 c4 45 7 117 7 160 0 74 1 77
24 77 33 0 86 39 110 80 20 34 21 52 23 458 2 332 0 422 -10 421 -6 -1 -27 -6
-45 -12z"/>
<path d="M1550 3998 c-70 -35 -90 -80 -90 -200 l0 -98 27 0 c84 0 133 81 133
219 0 114 0 114 -70 79z"/>
<path d="M2925 3995 c-21 -20 -25 -34 -25 -80 l0 -55 -44 0 c-88 0 -109 -19
-120 -107 l-7 -53 65 0 c83 0 106 23 106 106 l0 54 54 0 c77 0 98 20 104 99
l4 61 -56 0 c-47 0 -61 -4 -81 -25z"/>
<path d="M3091 3843 c-21 -17 -40 -74 -41 -120 0 -21 5 -23 54 -23 89 0 116
26 116 115 l0 45 -54 0 c-36 0 -61 -6 -75 -17z"/>
<path d="M434 3521 c-42 -19 -76 -63 -88 -113 -6 -26 -10 -28 -56 -28 -72 0
-102 -29 -108 -103 l-4 -57 58 0 c85 1 114 30 114 114 l0 46 78 0 79 0 -5 -80
c-5 -91 3 -98 75 -63 61 29 80 72 86 196 l5 107 -97 0 c-72 0 -106 -5 -137
-19z"/>
<path d="M1166 3514 c-22 -22 -26 -36 -26 -80 l0 -54 58 0 c79 0 102 23 102
103 l0 57 -54 0 c-44 0 -58 -4 -80 -26z"/>
<path d="M4260 3518 c-67 -35 -90 -86 -90 -204 l0 -92 -28 -7 c-50 -10 -93
-44 -112 -88 -30 -66 -30 -67 60 -67 l80 0 0 -81 0 -81 109 4 c92 2 114 6 138
24 36 27 73 81 73 108 0 17 9 24 44 34 52 14 102 66 112 117 5 28 11 35 29 35
50 0 135 86 135 136 0 23 -3 24 -80 24 l-80 0 0 80 0 80 -173 0 c-159 0 -176
-2 -217 -22z m230 -378 l0 -80 -80 0 -80 0 0 80 0 80 80 0 80 0 0 -80z"/>
<path d="M912 3363 c-42 -20 -69 -55 -82 -104 -7 -23 -17 -39 -26 -39 -52 0
-123 -67 -139 -132 -5 -20 -15 -28 -41 -32 -47 -9 -99 -62 -114 -116 -8 -31
-11 -137 -9 -359 l4 -315 -38 -9 c-101 -24 -127 -88 -127 -314 l0 -163 -24 0
c-79 0 -129 -81 -134 -217 -5 -114 -4 -115 59 -89 78 33 109 96 109 222 l0 82
38 12 c87 29 115 81 113 211 l-1 97 28 6 c66 15 132 81 132 132 0 17 9 24 43
32 51 13 101 63 115 115 l10 37 -84 0 -84 0 2 318 3 317 105 5 c115 6 132 12
179 65 30 35 31 39 31 130 0 51 3 100 6 109 8 21 -30 21 -74 -1z"/>
<path d="M1552 3363 c-41 -20 -69 -54 -84 -104 l-11 -39 -94 0 c-134 0 -198
-38 -218 -131 -5 -21 -14 -28 -40 -33 -47 -9 -100 -62 -114 -113 -9 -32 -17
-42 -39 -46 -91 -20 -124 -74 -130 -214 l-4 -103 96 0 c139 0 205 38 222 125
l6 35 94 0 c136 0 203 38 219 123 6 28 13 35 50 46 86 25 115 79 115 216 l0
93 35 6 c59 11 125 82 125 136 0 27 -174 30 -228 3z m-252 -383 l0 -80 -80 0
-80 0 0 80 0 80 80 0 80 0 0 -80z"/>
<path d="M2035 3366 c-72 -32 -95 -83 -95 -212 0 -88 1 -94 20 -94 53 0 124
65 136 124 5 29 11 35 40 40 59 12 124 85 124 141 0 20 -180 21 -225 1z"/>
<path d="M4744 3046 c-38 -17 -71 -57 -85 -105 -9 -31 -17 -38 -57 -51 -52
-17 -98 -67 -108 -118 l-7 -34 111 4 c172 5 212 45 212 214 0 115 -2 118 -66
90z"/>
<path d="M273 2884 c-68 -34 -92 -89 -93 -216 0 -100 6 -106 79 -68 65 32 85
78 89 197 5 116 -2 123 -75 87z"/>
<path d="M3618 2880 c-38 -20 -72 -66 -83 -112 l-7 -28 96 0 c136 0 187 25
222 107 23 52 21 53 -88 53 -82 -1 -111 -5 -140 -20z"/>
<path d="M2190 2736 c0 -80 4 -146 9 -146 5 0 42 16 82 36 40 20 112 51 159
70 81 31 85 34 84 62 -4 83 -61 115 -216 120 l-118 4 0 -146z m208 38 c51 -35
18 -84 -57 -84 l-41 0 0 50 0 50 38 0 c21 0 48 -7 60 -16z"/>
<path d="M2570 2812 l0 -72 25 10 c33 13 231 60 250 60 30 0 14 22 -31 42 -32
14 -77 22 -145 25 l-99 6 0 -71z"/>
<path d="M3044 2834 c-218 -32 -613 -141 -598 -165 3 -5 -1 -6 -9 -3 -30 11
-386 -168 -467 -234 l-25 -21 110 6 c61 3 116 10 123 15 8 7 12 7 12 -1 0 -17
232 -15 274 3 68 29 100 118 60 174 -14 21 -14 23 11 32 14 6 28 10 31 10 2 0
4 -52 4 -115 l0 -115 94 0 c103 0 141 10 203 51 92 63 121 215 56 291 -8 9
-11 18 -6 21 10 5 141 33 201 42 23 4 42 11 42 16 0 10 3 11 -116 -7z m-199
-188 c0 -79 -61 -136 -145 -136 l-31 0 3 97 3 96 60 23 60 22 25 -24 c21 -20
25 -34 25 -78z m-405 -90 c0 -33 -19 -46 -79 -53 -66 -8 -66 7 2 46 63 37 77
38 77 7z"/>
<path d="M1485 2715 c-21 -20 -25 -34 -25 -80 l0 -55 55 0 c78 0 105 27 105
105 l0 55 -55 0 c-46 0 -60 -4 -80 -25z"/>
<path d="M3889 2727 c-26 -20 -39 -53 -39 -101 l0 -46 -49 0 c-84 0 -111 -28
-111 -115 l0 -45 54 0 c78 0 104 23 108 98 l3 57 57 5 c76 7 97 28 105 103 l6
57 -59 0 c-32 0 -66 -6 -75 -13z"/>
<path d="M4195 2714 c-20 -22 -25 -37 -25 -80 l0 -54 -49 0 c-84 0 -111 -28
-111 -115 l0 -45 54 0 c81 0 106 24 106 101 l0 59 54 0 c78 0 105 25 112 103
l4 57 -60 0 c-53 0 -64 -3 -85 -26z"/>
<path d="M4767 2575 c-88 -30 -117 -84 -117 -220 l0 -95 -80 0 -80 0 0 80 c0
74 -2 80 -20 80 -53 0 -112 -55 -130 -120 -9 -32 -15 -39 -45 -44 -86 -17
-125 -88 -125 -230 l0 -86 -241 0 -242 0 4 161 4 162 -100 -2 c-177 -3 -215
-40 -215 -211 l0 -107 -39 -7 c-50 -8 -94 -45 -115 -97 -25 -62 -28 -62 233
-58 l236 4 0 -80 0 -80 -111 -5 c-141 -6 -185 -33 -203 -122 -5 -26 -13 -34
-39 -39 -63 -13 -108 -58 -121 -121 -5 -26 -13 -34 -39 -39 -62 -13 -122 -74
-122 -126 0 -17 -9 -25 -39 -33 -66 -18 -121 -76 -121 -130 0 -19 -6 -20 -99
-20 -54 0 -126 -3 -160 -6 l-61 -7 0 87 c0 80 1 86 20 86 51 0 112 53 133 115
11 32 20 41 46 46 82 17 121 90 121 224 l0 95 -27 -6 c-99 -23 -127 -67 -131
-204 l-4 -108 -181 -4 c-229 -4 -254 -15 -292 -125 -10 -29 -20 -39 -42 -44
-63 -13 -110 -60 -120 -123 l-5 -34 161 5 161 6 0 -82 c0 -57 -4 -83 -12 -85
-7 -3 -26 -7 -42 -11 -40 -9 -94 -67 -102 -110 -5 -30 -12 -36 -44 -45 -90
-24 -120 -77 -120 -214 l0 -95 -39 -11 c-50 -13 -90 -45 -107 -86 -28 -67 -41
-64 250 -64 256 0 264 1 296 23 65 44 74 67 79 189 l3 111 -33 -7 c-53 -10
-102 -56 -119 -109 l-15 -47 -77 0 -78 0 0 80 c0 74 2 80 20 80 54 0 123 64
134 124 l7 35 189 3 c215 3 226 7 268 88 18 37 22 61 22 137 l0 93 81 0 81 0
-4 -80 -3 -80 26 0 c84 0 141 93 137 225 l-2 90 82 3 82 3 0 -161 0 -160 80 0
80 0 0 -81 0 -82 32 7 c64 13 118 72 118 129 l0 27 164 0 163 0 -5 -160 -5
-160 82 0 81 0 0 -80 c0 -75 1 -80 21 -80 60 0 125 60 136 125 4 26 11 35 25
35 56 0 138 83 138 139 0 15 6 21 21 21 35 0 88 30 112 64 19 26 23 48 27 141
l5 110 30 -2 c90 -6 125 25 125 109 l0 58 -51 0 c-72 0 -109 -37 -109 -109 0
-50 0 -50 -39 -61 -51 -13 -98 -60 -111 -110 l-10 -38 -68 -4 c-95 -5 -92 -8
-92 83 l0 79 58 0 c79 0 102 23 102 103 l0 57 -51 0 c-72 0 -109 -37 -109
-109 l0 -51 -37 -1 c-21 0 -57 -2 -80 -5 l-43 -5 0 320 0 321 39 0 c91 0 129
37 127 125 l-1 40 -60 -3 c-80 -4 -97 -22 -103 -102 l-4 -60 -160 0 -159 0 3
82 3 82 90 -2 c129 -4 225 53 225 134 0 16 7 24 28 29 66 14 132 80 132 131 0
21 5 22 109 26 131 4 174 28 201 111 13 39 19 47 48 52 87 16 124 84 120 222
l-3 101 -38 -13z m-755 -1349 l0 -238 -238 0 -239 0 -3 228 c-1 126 0 234 3
241 3 11 55 13 240 11 l236 -3 1 -239z"/>
<path d="M3740 1297 c-34 -17 -51 -54 -48 -107 3 -44 4 -45 40 -48 84 -7 136
48 126 133 -3 28 -6 30 -48 33 -25 1 -56 -4 -70 -11z"/>
<path d="M1182 2573 c-22 -9 -42 -60 -42 -108 l0 -45 -55 0 c-78 0 -105 -27
-105 -105 l0 -55 55 0 c78 0 105 27 105 105 l0 55 54 0 c81 0 106 24 106 101
l0 59 -52 -1 c-29 0 -59 -3 -66 -6z"/>
<path d="M3414 2572 c-27 -18 -44 -60 -44 -104 l0 -48 56 0 c78 0 114 35 114
109 l0 51 -57 0 c-32 0 -63 -4 -69 -8z"/>
<path d="M1935 2345 l0 -55 42 0 c48 0 69 22 51 54 -5 9 -7 20 -4 23 13 13
-19 33 -53 33 l-36 0 0 -55z m52 18 c-4 -3 -7 0 -7 7 0 7 3 10 7 7 3 -4 3 -10
0 -14z m13 -44 c0 -5 -4 -9 -10 -9 -5 0 -10 7 -10 16 0 8 5 12 10 9 6 -3 10
-10 10 -16z"/>
<path d="M2070 2353 c-14 -27 -26 -51 -28 -55 -2 -5 6 -8 17 -8 12 0 21 5 21
10 0 6 7 10 16 10 8 0 12 -4 9 -10 -12 -20 140 -12 158 8 40 44 4 92 -66 92
-33 0 -38 -2 -28 -14 14 -17 11 -81 -4 -81 -5 0 -21 21 -35 47 -31 59 -30 59
-60 1z m175 8 c7 -24 -4 -51 -21 -51 -9 0 -14 12 -14 35 0 38 24 50 35 16z
m-145 -21 c0 -5 -5 -10 -11 -10 -5 0 -7 5 -4 10 3 6 8 10 11 10 2 0 4 -4 4
-10z"/>
<path d="M2295 2345 c0 -54 0 -55 30 -55 22 0 26 3 17 12 -7 7 -12 17 -12 22
0 6 7 0 16 -12 9 -14 25 -22 42 -22 l27 0 -24 19 c-20 15 -22 21 -11 40 16 31
-3 51 -49 51 l-36 0 0 -55z m55 20 c0 -8 -4 -15 -10 -15 -5 0 -10 7 -10 15 0
8 5 15 10 15 6 0 10 -7 10 -15z"/>
<path d="M2485 2381 c-3 -11 -17 -36 -30 -55 l-24 -36 24 0 c14 0 25 5 25 10
0 6 7 10 16 10 8 0 12 -4 9 -10 -8 -14 230 -13 256 0 49 27 12 100 -50 100
l-39 0 5 -44 c3 -26 1 -46 -6 -50 -6 -4 -11 -1 -11 8 0 9 -4 16 -10 16 -5 0
-10 -4 -10 -10 0 -5 -7 -10 -15 -10 -19 0 -21 60 -3 78 9 9 4 12 -26 12 -32 0
-37 -2 -27 -14 14 -17 11 -81 -4 -81 -5 0 -21 21 -35 47 -27 53 -36 58 -45 29z
m260 -36 c0 -20 -6 -31 -17 -33 -15 -3 -18 4 -18 33 0 29 3 36 18 33 11 -2 17
-13 17 -33z m-248 -12 c-4 -3 -10 -3 -14 0 -3 4 0 7 7 7 7 0 10 -3 7 -7z"/>
<path d="M2795 2345 l0 -55 80 0 c61 0 76 3 67 12 -7 7 -12 21 -12 33 1 17 4
16 29 -12 38 -45 51 -42 51 10 0 24 5 48 12 55 9 9 4 12 -22 12 -26 0 -31 -3
-22 -12 27 -27 12 -41 -16 -15 -25 24 -36 27 -98 27 l-69 0 0 -55z m115 0 c0
-19 -4 -37 -10 -40 -5 -3 -10 1 -10 9 0 9 -4 16 -10 16 -5 0 -10 7 -10 15 0 8
5 15 10 15 6 0 10 7 10 16 0 8 5 12 10 9 6 -3 10 -21 10 -40z m-56 20 c-4 -8
-8 -15 -10 -15 -2 0 -4 7 -4 15 0 8 4 15 10 15 5 0 7 -7 4 -15z m11 -47 c6 -4
2 -8 -7 -8 -10 0 -18 7 -18 17 0 9 3 12 8 7 4 -5 12 -12 17 -16z"/>
<path d="M1236 2261 c-75 -8 -96 -31 -96 -107 l0 -54 55 0 c80 0 105 26 105
110 0 33 -1 59 -2 59 -2 -1 -29 -5 -62 -8z"/>
<path d="M1580 2257 c-49 -12 -99 -63 -112 -114 -8 -32 -15 -43 -30 -43 -52 0
-123 -66 -134 -125 -6 -35 -6 -35 -61 -35 -76 0 -103 -27 -103 -105 l0 -55
-80 0 -80 0 0 160 0 160 -104 0 c-119 0 -153 -15 -193 -85 -39 -70 -35 -75 60
-75 l82 0 -3 -162 -3 -161 81 6 80 6 0 -84 0 -85 163 0 c223 0 295 28 312 124
7 34 46 46 146 46 18 0 19 -19 19 -480 l0 -479 -37 -10 c-93 -26 -123 -78
-123 -220 l0 -99 39 10 c52 13 99 61 114 115 9 34 16 43 33 43 29 0 84 39 111
79 20 30 23 46 23 137 0 102 0 104 24 104 29 0 82 35 110 73 19 26 21 44 24
218 l3 190 -80 -7 -81 -7 0 87 0 86 104 -2 c130 -3 173 19 203 101 l17 50 261
3 c260 3 262 3 298 28 58 39 77 89 77 203 l0 97 -27 -6 c-72 -17 -119 -64
-130 -129 l-6 -35 -158 0 -159 0 0 85 0 85 -27 -6 c-98 -23 -133 -82 -133
-224 l0 -100 -160 0 -160 0 0 83 0 82 -80 -3 -80 -4 -2 244 -3 244 -35 -9z
m-124 -624 c-4 -10 -43 -13 -161 -13 l-155 0 0 80 0 80 45 0 c87 0 115 27 115
110 l0 49 78 3 77 3 3 -150 c1 -82 0 -155 -2 -162z"/>
<path d="M1995 2260 c3 -5 10 -10 16 -10 5 0 9 5 9 10 0 6 -7 10 -16 10 -8 0
-12 -4 -9 -10z"/>
<path d="M2535 2260 c3 -5 15 -10 25 -10 10 0 22 5 25 10 4 6 -7 10 -25 10
-18 0 -29 -4 -25 -10z"/>
<path d="M2200 2230 c0 -34 -14 -39 -30 -10 -6 12 -21 20 -35 20 -31 0 -32
-15 -2 -25 l22 -8 -22 -4 c-51 -10 -25 -33 37 -33 l60 0 0 45 c0 33 -4 45 -15
45 -10 0 -15 -10 -15 -30z"/>
<path d="M2240 2215 c0 -33 4 -45 15 -45 11 0 15 12 15 45 0 33 -4 45 -15 45
-11 0 -15 -12 -15 -45z"/>
<path d="M2020 2205 c0 -26 -4 -35 -16 -35 -11 0 -15 6 -11 20 7 27 -20 27
-28 0 -11 -36 11 -50 76 -47 l59 2 0 48 c0 35 -4 47 -15 47 -8 0 -15 -9 -15
-20 0 -11 -4 -20 -10 -20 -5 0 -10 9 -10 20 0 11 -7 20 -15 20 -10 0 -15 -11
-15 -35z m40 -40 c0 -3 -2 -5 -5 -5 -3 0 -5 2 -5 5 0 3 2 5 5 5 3 0 5 -2 5 -5z"/>
<path d="M2318 2193 c-5 -56 -4 -60 17 -43 20 16 21 90 1 90 -9 0 -15 -15 -18
-47z"/>
<path d="M2360 2234 c0 -4 8 -13 18 -20 16 -13 16 -13 0 -14 -44 0 -17 -30 27
-30 34 0 45 -4 45 -16 0 -9 5 -14 12 -12 11 4 13 24 9 81 -1 24 -21 22 -21 -3
0 -11 -6 -20 -14 -20 -7 0 -16 9 -19 20 -5 18 -57 31 -57 14z"/>
<path d="M2524 2226 c-19 -50 -15 -51 239 -53 l237 -2 0 35 c0 32 -2 34 -34
34 -26 0 -36 -5 -41 -20 -3 -11 -9 -20 -13 -20 -4 0 -13 9 -20 20 -14 23 -62
28 -62 6 0 -8 10 -17 23 -19 19 -4 19 -4 -5 -6 -19 -1 -29 5 -33 19 -5 14 -15
20 -37 20 -21 0 -31 -6 -35 -20 -7 -26 -19 -26 -26 0 -7 28 -97 27 -97 -1 0
-11 -4 -19 -10 -19 -5 0 -10 9 -10 20 0 25 -67 30 -76 6z m43 -23 c-4 -3 -10
-3 -14 0 -3 4 0 7 7 7 7 0 10 -3 7 -7z m116 0 c-7 -2 -19 -2 -25 0 -7 3 -2 5
12 5 14 0 19 -2 13 -5z m104 1 c-3 -3 -12 -4 -19 -1 -8 3 -5 6 6 6 11 1 17 -2
13 -5z m180 -1 c-4 -3 -10 -3 -14 0 -3 4 0 7 7 7 7 0 10 -3 7 -7z"/>
<path d="M4765 1937 c-89 -34 -115 -84 -115 -219 l0 -99 -98 2 c-125 3 -181
-25 -211 -104 -24 -62 -27 -61 149 -54 l160 6 0 -85 0 -84 28 6 c41 10 83 36
106 67 20 27 21 42 24 303 2 151 -1 274 -5 273 -4 0 -22 -6 -38 -12z"/>
<path d="M560 1777 c-42 -15 -60 -47 -60 -111 l0 -48 60 4 c82 6 102 26 104
105 l1 58 -35 2 c-19 1 -51 -3 -70 -10z"/>
<path d="M2131 1444 c-28 -24 -31 -31 -31 -86 l0 -60 57 4 c76 7 103 36 103
114 l0 54 -49 0 c-39 0 -56 -6 -80 -26z"/>
<path d="M518 1300 c-186 -33 -317 -184 -328 -375 -12 -218 3 -445 35 -509 39
-80 110 -150 192 -189 l68 -32 260 0 260 0 58 27 c106 50 189 145 223 257 24
78 20 471 -6 552 -36 115 -140 219 -255 255 -58 19 -427 29 -507 14z m488
-177 c54 -29 110 -93 123 -140 6 -21 11 -129 11 -243 0 -264 -19 -314 -140
-369 -72 -33 -443 -31 -515 3 -121 56 -140 108 -140 381 l0 210 30 53 c62 113
118 132 390 129 184 -2 203 -4 241 -24z"/>
<path d="M680 977 c-180 -50 -234 -284 -94 -407 156 -137 395 -30 394 177 -1
159 -149 272 -300 230z"/>
<path d="M1985 818 c-35 -20 -44 -41 -45 -101 0 -57 0 -58 28 -53 15 2 40 5
55 5 48 2 77 41 77 106 l0 55 -47 0 c-27 0 -57 -6 -68 -12z"/>
<path d="M3325 818 c-54 -19 -105 -80 -105 -126 0 -18 -9 -20 -109 -24 -92 -3
-115 -7 -138 -24 -38 -28 -73 -82 -73 -110 0 -22 -4 -24 -54 -24 -75 0 -97
-20 -107 -95 -10 -74 -12 -72 62 -65 79 8 99 29 99 106 l0 54 240 0 241 0 -3
-77 -3 -78 -57 -5 c-77 -7 -100 -30 -106 -104 l-4 -56 55 0 c90 0 117 26 117
115 l0 45 81 0 81 0 -7 -80 -7 -80 28 0 c61 0 134 72 134 133 0 21 5 27 21 27
37 0 90 32 114 69 25 39 44 235 24 247 -37 22 -136 -58 -145 -118 l-7 -38 -84
0 -84 0 1 68 c1 37 1 73 1 80 -1 10 -20 13 -78 11 l-78 -2 0 78 c0 84 -4 89
-50 73z"/>
<path d="M1825 498 c-34 -20 -44 -41 -45 -95 l0 -53 -46 0 c-82 0 -113 -29
-114 -107 l0 -53 59 0 c77 0 101 25 101 106 l0 54 55 0 c78 0 105 27 105 105
l0 55 -47 0 c-27 0 -57 -6 -68 -12z"/>
<path d="M4583 490 c-44 -19 -78 -62 -88 -112 -6 -25 -11 -28 -50 -28 -84 0
-115 -31 -115 -115 l0 -45 58 0 c79 0 102 23 102 103 l0 57 101 0 c142 0 219
47 219 132 l0 28 -92 0 c-70 0 -104 -5 -135 -20z"/>
<path d="M3879 321 c-24 -25 -29 -37 -29 -80 l0 -51 58 0 c83 1 112 32 112
121 l0 39 -56 0 c-48 0 -59 -4 -85 -29z"/>
</g>
</svg>
